<svg height="56" viewBox="0 0 56 56" width="56" xmlns="http://www.w3.org/2000/svg"><g fill="none" fill-rule="evenodd"><circle cx="28" cy="28" fill="#e1e3e6" r="28"/><g fill="#6d7885" fill-rule="nonzero"><path d="m33 43c.8284271 0 1.5.6715729 1.5 1.5 0 .7796961-.5948881 1.4204487-1.35554 1.4931334l-.14446.0068666h-9c-.8284271 0-1.5-.6715729-1.5-1.5 0-.7796961.5948881-1.4204487 1.35554-1.4931334l.14446-.0068666z" transform="matrix(1 0 0 -1 0 89)"/><path d="m16 29.5c2.7933218 0 5.2091629 1.2079206 7.1523319 3.5397234.5303461.6364153.44436 1.5822624-.1920553 2.1126085s-1.5822624.44436-2.1126085-.1920553c-1.3901643-1.6681972-2.9743232-2.4602766-4.8476681-2.4602766-1.9450821 0-3.9451456.8571701-6.02381294 2.6388849-.62898876.5391332-1.57593874.4662909-2.11507196-.1626978-.53913323-.6289888-.46629092-1.5759388.16269784-2.115072 2.58799936-2.2182852 5.25460256-3.3611151 7.97618706-3.3611151z" transform="matrix(1 0 0 -1 0 65.000038)"/><path d="m41 29.5c2.7933218 0 5.2091629 1.2079206 7.1523319 3.5397234.5303461.6364153.44436 1.5822624-.1920553 2.1126085s-1.5822624.44436-2.1126085-.1920553c-1.3901643-1.6681972-2.9743232-2.4602766-4.8476681-2.4602766-1.9450821 0-3.9451456.8571701-6.0238129 2.6388849-.6289888.5391332-1.5759388.4662909-2.115072-.1626978-.5391332-.6289888-.4662909-1.5759388.1626978-2.115072 2.5879994-2.2182852 5.2546026-3.3611151 7.9761871-3.3611151z" transform="matrix(-1 0 0 -1 81.00001 65.000038)"/></g></g></svg>