<svg height="56" viewBox="0 0 56 56" width="56" xmlns="http://www.w3.org/2000/svg"><g fill="none" fill-rule="evenodd"><circle cx="28" cy="28" fill="#ffd54f" r="28"/><g fill="#7a4622" fill-rule="nonzero"><path d="m36.871135 37.0122431c.545523-.623455 1.493167-.6866312 2.1166219-.1411081.623455.545523.6866312 1.493167.1411081 2.1166219-2.6360553 3.0126346-6.3850764 4.5122431-11.128865 4.5122431s-8.4928097-1.4996085-11.128865-4.5122431c-.5455231-.6234549-.4823469-1.5710989.1411081-2.1166219.6234549-.5455231 1.5710989-.4823469 2.1166219.1411081 2.0306114 2.3206987 4.9482569 3.4877569 8.871135 3.4877569s6.8405236-1.1670582 8.871135-3.4877569z"/><path d="m16 20.5c2.9996714 0 5.4466143 2.0391267 7.3416408 5.8291796.3704839.7409678.0701473 1.6419773-.6708204 2.0124612-.7409678.3704839-1.6419773.0701473-2.0124612-.6708204-1.4383068-2.8766137-2.9913549-4.1708204-4.6583592-4.1708204s-3.2200524 1.2942067-4.6583592 4.1708204c-.3704839.7409677-1.2714934 1.0413043-2.01246119.6708204-.74096775-.3704839-1.04130427-1.2714934-.6708204-2.0124612 1.89502649-3.7900529 4.34197849-5.8291796 7.34164079-5.8291796z"/><path d="m40 20.5c2.9996714 0 5.4466143 2.0391267 7.3416408 5.8291796.3704839.7409678.0701473 1.6419773-.6708204 2.0124612-.7409678.3704839-1.6419773.0701473-2.0124612-.6708204-1.4383068-2.8766137-2.9913549-4.1708204-4.6583592-4.1708204s-3.2200524 1.2942067-4.6583592 4.1708204c-.3704839.7409677-1.2714934 1.0413043-2.0124612.6708204-.7409677-.3704839-1.0413043-1.2714934-.6708204-2.0124612 1.8950265-3.7900529 4.3419785-5.8291796 7.3416408-5.8291796z"/></g></g></svg>